<?xml version="1.0" standalone="no"?>
<!DOCTYPE svg PUBLIC "-//W3C//DTD SVG 20010904//EN"
 "http://www.w3.org/TR/2001/REC-SVG-20010904/DTD/svg10.dtd">
<svg version="1.0" xmlns="http://www.w3.org/2000/svg"
 width="1024.000000pt" height="1024.000000pt" viewBox="0 0 1024.000000 1024.000000"
 preserveAspectRatio="xMidYMid meet">

<g transform="translate(0.000000,1024.000000) scale(0.100000,-0.100000)"
fill="#000000" stroke="none">
<path d="M7092 8120 c-430 -93 -775 -440 -868 -871 -24 -112 -25 -363 -1 -466
49 -213 139 -384 316 -598 112 -134 134 -177 159 -296 12 -58 22 -109 22 -112
0 -4 -15 -7 -34 -7 -32 0 -44 -13 -227 -232 -115 -139 -194 -227 -196 -218 -3
8 -9 25 -15 37 -7 15 -9 161 -6 462 l5 441 -174 0 -173 0 0 -835 0 -835 173 0
172 0 -2 257 c-2 207 0 255 10 243 6 -9 97 -125 201 -258 l190 -242 198 0 199
0 -148 183 c-81 100 -192 236 -246 302 -53 66 -96 125 -95 131 2 7 98 118 213
249 179 202 211 243 216 276 l5 39 -37 0 c-34 0 -38 3 -53 41 -9 23 -23 79
-31 123 -24 140 -70 222 -210 381 -208 236 -297 437 -297 670 -1 175 38 321
124 471 61 107 92 149 172 232 76 80 148 129 279 192 152 74 204 85 382 84
301 -2 475 -74 693 -288 197 -193 276 -382 276 -661 0 -95 -6 -144 -27 -235
-46 -197 -94 -276 -321 -528 -98 -109 -134 -172 -185 -325 -55 -162 -26 -151
-403 -157 l-310 -5 -19 -24 c-21 -25 -25 -62 -9 -91 19 -35 64 -40 374 -40
l301 0 61 29 c88 42 122 91 180 263 36 107 61 148 154 253 210 236 290 368
347 570 34 122 42 328 19 464 -78 448 -406 805 -846 923 -116 31 -383 35 -508
8z"/>
<path d="M7009 7678 c-43 -21 -90 -58 -144 -112 -45 -45 -103 -99 -131 -122
-27 -22 -62 -65 -79 -95 -26 -48 -30 -65 -33 -162 -4 -102 -6 -112 -38 -164
-56 -93 -57 -188 -4 -293 34 -67 89 -119 169 -159 59 -30 59 -30 69 -88 14
-79 43 -143 88 -192 86 -96 279 -104 383 -15 l38 33 24 -26 c40 -43 116 -73
185 -73 160 0 269 88 314 254 16 56 21 63 66 89 72 42 101 74 140 153 27 55
37 87 41 146 5 67 3 82 -21 134 -15 32 -33 65 -40 74 -9 9 -16 53 -19 115 -7
133 -26 185 -93 249 -85 82 -101 98 -163 164 -133 140 -291 151 -398 27 l-37
-42 -43 48 c-85 93 -166 111 -274 57z m157 -143 c12 -8 32 -38 44 -67 24 -53
24 -54 25 -538 2 -525 0 -541 -50 -560 -45 -17 -127 -12 -163 10 -41 25 -61
71 -69 158 -7 82 -22 100 -119 147 -48 23 -86 51 -114 82 -41 47 -42 50 -38
107 4 46 9 63 27 77 21 17 23 17 59 -1 20 -10 70 -26 110 -35 51 -12 86 -27
118 -51 57 -43 83 -54 110 -43 28 10 54 47 54 77 0 48 -101 111 -237 150 -120
34 -163 78 -163 167 0 39 5 52 39 87 l39 42 58 -51 c33 -27 69 -55 81 -62 36
-18 80 -14 97 11 30 42 20 67 -49 132 -36 34 -65 68 -65 77 0 17 43 54 95 82
38 20 84 21 111 2z m430 -9 c36 -17 54 -32 63 -55 16 -38 4 -61 -64 -116 -33
-28 -45 -44 -45 -65 0 -31 23 -55 63 -65 29 -8 70 14 154 81 23 19 44 34 47
34 3 0 19 -24 36 -52 22 -40 30 -66 30 -105 0 -65 -22 -85 -112 -103 -163 -32
-257 -130 -182 -189 35 -28 51 -27 119 9 31 17 65 30 74 30 9 0 46 10 81 21
61 21 64 21 77 3 29 -40 33 -83 12 -149 -15 -50 -28 -72 -61 -99 -69 -59 -113
-58 -186 5 -40 36 -84 38 -106 7 -37 -52 -6 -115 79 -159 44 -23 46 -26 41
-58 -7 -45 -49 -107 -89 -132 -37 -23 -112 -22 -162 2 -30 14 -30 14 -36 124
-20 336 -21 388 -9 550 6 94 11 220 11 282 -1 127 14 184 58 208 36 19 48 18
107 -9z"/>
<path d="M4160 6298 c-31 -16 -54 -38 -75 -72 -26 -42 -30 -59 -29 -115 1
-128 77 -201 209 -201 93 0 154 34 186 105 84 182 -113 373 -291 283z"/>
<path d="M1230 6095 l2 -165 249 0 249 0 0 -675 0 -675 180 0 180 0 0 675 0
675 235 0 235 0 0 165 0 165 -665 0 -666 0 1 -165z"/>
<path d="M2690 5425 l0 -835 175 0 175 0 0 318 c0 343 6 394 54 469 47 75 102
103 199 103 108 0 186 -53 228 -155 9 -21 14 -131 17 -382 l4 -353 174 0 174
0 0 368 c0 408 -5 454 -62 570 -21 42 -57 91 -98 133 -102 103 -213 145 -359
137 -101 -6 -209 -56 -284 -132 l-52 -53 3 323 3 324 -176 0 -175 0 0 -835z"/>
<path d="M5160 5785 c-69 -20 -120 -53 -156 -102 -15 -21 -31 -42 -35 -47 -5
-5 -5 23 -2 62 l6 72 -177 0 -176 0 0 -590 0 -590 175 0 174 0 3 353 c3 343 4
353 26 402 43 94 105 134 205 135 72 0 113 -17 154 -63 48 -55 53 -100 53
-482 l0 -345 176 0 175 0 -3 408 c-4 357 -6 414 -22 462 -46 142 -128 240
-252 301 -58 29 -76 33 -167 36 -70 2 -119 -2 -157 -12z"/>
<path d="M4080 5180 l0 -590 175 0 175 0 0 590 0 590 -175 0 -175 0 0 -590z"/>
<path d="M7352 5511 l-314 -6 -24 -28 c-30 -35 -31 -80 -4 -107 20 -20 29 -21
358 -17 349 4 370 7 392 47 25 46 -10 107 -65 113 -16 2 -171 1 -343 -2z"/>
<path d="M7103 5242 c-17 -18 -17 -113 1 -155 7 -18 23 -40 34 -51 26 -22 119
-46 185 -46 119 0 269 60 307 123 23 37 28 125 8 132 -7 2 -127 5 -267 7 -201
2 -257 0 -268 -10z"/>
<path d="M8420 4310 l0 -350 -41 45 c-103 111 -323 163 -508 120 -175 -42
-359 -201 -425 -370 -43 -111 -57 -259 -35 -381 35 -193 234 -426 419 -488 69
-23 236 -32 311 -17 73 15 162 58 227 110 l52 41 0 -65 0 -65 175 0 175 0 0
885 0 885 -175 0 -175 0 0 -350z m-197 -503 c71 -32 141 -102 175 -175 22 -47
27 -71 27 -137 -1 -100 -26 -162 -93 -228 -64 -63 -128 -89 -228 -95 -149 -8
-254 50 -316 175 -29 60 -33 77 -33 148 0 67 5 90 28 140 83 177 270 250 440
172z"/>
<path d="M2140 3707 l0 -819 428 5 c393 4 433 5 499 24 108 31 196 76 253 129
201 188 152 554 -91 684 l-61 32 39 25 c109 73 161 162 170 292 4 56 1 93 -11
136 -44 153 -131 240 -281 282 -62 18 -473 34 -747 31 l-198 -3 0 -818z m749
518 c59 -7 89 -27 112 -78 42 -93 12 -197 -69 -245 -46 -26 -51 -27 -231 -30
-145 -3 -186 -1 -192 10 -5 7 -9 91 -9 186 l0 172 173 -5 c94 -3 192 -8 216
-10z m44 -649 c102 -31 140 -82 141 -191 1 -95 -20 -130 -99 -170 -60 -30 -60
-30 -267 -34 l-208 -3 0 206 0 206 193 0 c136 0 208 -4 240 -14z"/>
<path d="M4042 4120 c-106 -28 -204 -83 -281 -159 -82 -81 -132 -167 -161
-274 -19 -70 -22 -100 -18 -207 4 -108 9 -135 35 -201 101 -259 338 -419 618
-419 254 0 481 135 589 351 102 202 86 458 -40 642 -90 131 -228 228 -380 267
-102 26 -261 26 -362 0z m302 -310 c69 -26 134 -83 171 -151 27 -49 30 -63 30
-144 0 -78 -4 -98 -28 -150 -32 -69 -84 -127 -142 -158 -33 -18 -57 -22 -135
-22 -84 0 -101 3 -145 27 -67 35 -118 90 -152 163 -22 49 -27 74 -28 140 0 68
4 89 28 137 72 146 247 215 401 158z"/>
<path d="M5460 4126 c-88 -19 -178 -53 -218 -83 -60 -45 -111 -134 -136 -235
l-6 -28 83 0 c46 0 109 -5 141 -11 56 -10 58 -10 93 21 61 54 117 73 213 74
73 0 92 -4 137 -27 62 -32 101 -80 105 -128 l3 -34 -215 -6 c-178 -6 -228 -11
-290 -29 -243 -70 -360 -228 -329 -446 13 -94 37 -140 106 -205 99 -94 193
-129 348 -129 145 1 240 33 329 111 l46 41 0 -61 0 -61 176 0 175 0 -3 453
c-3 448 -3 453 -27 512 -52 131 -126 196 -287 251 -69 23 -98 27 -229 30 -101
2 -171 -1 -215 -10z m420 -724 c0 -4 -9 -41 -21 -82 -23 -85 -43 -111 -114
-148 -43 -23 -62 -26 -145 -27 -83 0 -100 3 -134 24 -40 25 -76 74 -76 103 0
50 96 112 196 127 75 11 294 13 294 3z"/>
<path d="M7162 4120 c-131 -27 -192 -57 -271 -138 l-66 -67 3 103 3 102 -175
0 -176 0 -2 -615 -3 -615 177 0 177 0 3 348 c3 345 3 347 28 396 60 123 140
161 333 161 l127 -1 0 173 0 173 -32 -1 c-18 0 -75 -9 -126 -19z"/>
</g>
</svg>
